<?xml version="1.0" encoding="UTF-8" standalone="no"?>
<!DOCTYPE svg PUBLIC "-//W3C//DTD SVG 1.1//EN" "http://www.w3.org/Graphics/SVG/1.1/DTD/svg11.dtd">
<svg width="100%" height="100%" viewBox="0 0 512 512" version="1.1" xmlns="http://www.w3.org/2000/svg" xmlns:xlink="http://www.w3.org/1999/xlink" xml:space="preserve" style="fill-rule:evenodd;clip-rule:evenodd;stroke-linejoin:round;stroke-miterlimit:1.41421;">
    <g transform="matrix(2.11679,0,0,2.11679,-383.274,-94.8679)">
        <path d="M321.242,184.996C310.615,195.623 293.388,195.623 282.761,184.996C272.134,174.368 272.134,157.141 282.761,146.514C293.388,135.888 310.617,135.888 321.242,146.514C331.869,157.141 331.869,174.368 321.242,184.996M359.724,223.478C327.846,255.356 276.158,255.356 244.278,223.478C212.399,191.599 212.399,139.91 244.279,108.031C272.88,79.431 317.422,76.495 349.301,99.214L329.65,118.864C308.781,106.538 281.45,109.342 263.519,127.271C242.266,148.526 242.266,182.984 263.519,204.236C284.772,225.49 319.23,225.49 340.484,204.236C358.414,186.307 361.219,158.974 348.892,138.105L368.543,118.454C391.262,150.336 388.326,194.877 359.724,223.478M378.965,88.79C336.459,46.285 267.543,46.285 225.037,88.79C182.531,131.296 182.531,200.212 225.037,242.719C267.543,285.225 336.459,285.225 378.967,242.719C421.472,200.212 421.472,131.296 378.965,88.79" style="fill:rgb(0,161,191);fill-rule:nonzero;"/>
    </g>
</svg>
